<svg xmlns="http://www.w3.org/2000/svg" xmlns:xlink="http://www.w3.org/1999/xlink" version="1.1" x="0px" y="0px" viewBox="0 0 400 300" xml:space="preserve" enable-background="new 0 0 400 300">
  <style type="text/css">
    
	.st0{font-family:'Calibri';}
	.st1{font-size:24px;}
	.st2{fill:#ED1C24;stroke:#000000;stroke-miterlimit:10;}
	.st3{fill:#009245;stroke:#000000;stroke-miterlimit:10;}
	.st4{fill:#0060FF;stroke:#000000;stroke-miterlimit:10;}
	.st5{fill:#FFFFFF;stroke:#000000;stroke-miterlimit:10;}

  </style>
  <g id="textlayer">
    <text transform="matrix(1 0 0 1 21 40)" class="st0 st1">
      My SVG-coloring book
    </text>
  </g>
  <g id="Coloringbook">
    <g id="colors">
      <path class="st2" d="M113.61 275h-76c-6.6 0-12-5.4-12-12v-3c0-6.6 5.4-12 12-12h76c6.6 0 12 5.4 12 12v3C125.61 269.6 120.21 275 113.61 275z"/>
      <path class="st3" d="M229.61 275h-76c-6.6 0-12-5.4-12-12v-3c0-6.6 5.4-12 12-12h76c6.6 0 12 5.4 12 12v3C241.61 269.6 236.21 275 229.61 275z"/>
      <path class="st4" d="M353.65 275h-76c-6.6 0-12-5.4-12-12v-3c0-6.6 5.4-12 12-12h76c6.6 0 12 5.4 12 12v3C365.65 269.6 360.25 275 353.65 275z"/>
    </g>
    <g id="shapes">
      <rect x="25.61" y="94.13" class="st5" width="100" height="100"/>
      <circle class="st5" cx="191.61" cy="144.13" r="50"/>
      <polygon class="st5" points="335.75 88.25 269.32 107.3 266.91 176.36 331.85 200 374.39 145.55 "/>
    </g>
  </g>
</svg>
